<svg width="400" height="120" viewBox="0 0 400 120" xmlns="http://www.w3.org/2000/svg">
    <defs>
        <linearGradient id="silver-grad" x1="0%" y1="0%" x2="100%" y2="100%">
            <stop offset="0%" style="stop-color:#ffffff;stop-opacity:1" />
            <stop offset="50%" style="stop-color:#d0d0d0;stop-opacity:1" />
            <stop offset="100%" style="stop-color:#ffffff;stop-opacity:1" />
        </linearGradient>
        <filter id="soft-glow" x="-20%" y="-20%" width="140%" height="140%">
            <feGaussianBlur stdDeviation="2" result="blur"/>
            <feComposite in="SourceGraphic" in2="blur" operator="over"/>
        </filter>
    </defs>
    
    <g fill="url(#silver-grad)" style="filter:url(#soft-glow)">
        <!-- X: Broken center -->
        <!-- Top Left Segment -->
        <path d="M40 20 L55 20 L75 50 L60 50 Z" />
        <!-- Bottom Right Segment -->
        <path d="M80 70 L95 70 L115 100 L100 100 Z" />
        <!-- Top Right Segment -->
        <path d="M100 20 L115 20 L95 50 L80 50 Z" />
        <!-- Bottom Left Segment -->
        <path d="M60 70 L75 70 L55 100 L40 100 Z" />

        <!-- I: Simple vertical -->
        <!-- Slanted to match X style? Or straight? User said "clean". Let's do straight but with angled ends maybe? No, simple is best. -->
        <path d="M140 20 L160 20 L160 100 L140 100 Z" />

        <!-- Z: Sharp -->
        <path d="M190 20 L250 20 L250 35 L215 35 L190 85 L250 85 L250 100 L170 100 L170 85 L205 85 L230 35 L170 35 Z" />

        <!-- E: No vertical line, just 3 bars -->
        <path d="M280 20 L340 20 L340 35 L280 35 Z" /> 
        <path d="M280 52 L330 52 L330 67 L280 67 Z" />
        <path d="M280 85 L340 85 L340 100 L280 100 Z" />
    </g>
</svg>
